<svg width="200" height="200" viewBox="0 0 200 200" fill="none" xmlns="http://www.w3.org/2000/svg">
<g clip-path="url(#clip0_8_2)">
<g clip-path="url(#clip1_8_2)">
<path d="M93.75 12.725C77.5497 13.8859 61.9922 19.533 48.8192 29.0341C35.6462 38.5352 25.3776 51.5152 19.163 66.5211C12.9483 81.527 11.033 97.9665 13.6313 113.999C16.2297 130.032 23.2391 145.025 33.875 157.3L93.75 97.4125V12.725ZM106.25 12.725V93.75H187.275C185.771 72.758 176.752 53.0112 161.87 38.1296C146.989 23.2479 127.242 14.2286 106.25 12.725ZM187.275 106.25H102.587L42.7125 166.125C54.9878 176.757 69.9797 183.764 86.0105 186.36C102.041 188.956 118.478 187.04 133.482 180.826C148.486 174.612 161.464 164.345 170.964 151.174C180.465 138.003 186.112 122.448 187.275 106.25ZM0 100C0 73.4784 10.5357 48.043 29.2893 29.2893C48.043 10.5357 73.4784 0 100 0C126.522 0 151.957 10.5357 170.711 29.2893C189.464 48.043 200 73.4784 200 100C200 126.522 189.464 151.957 170.711 170.711C151.957 189.464 126.522 200 100 200C73.4784 200 48.043 189.464 29.2893 170.711C10.5357 151.957 0 126.522 0 100Z" fill="#525252"/>
</g>
</g>
<defs>
<clipPath id="clip0_8_2">
<rect width="200" height="200" fill="white"/>
</clipPath>
<clipPath id="clip1_8_2">
<rect width="200" height="200" fill="white"/>
</clipPath>
</defs>
</svg>
