<svg width="200" height="200" viewBox="0 0 200 200" fill="none" xmlns="http://www.w3.org/2000/svg">
<g clip-path="url(#clip0_14_36)">
<path fill-rule="evenodd" clip-rule="evenodd" d="M75 25C76.2845 25.0005 77.5376 25.3968 78.5888 26.135C79.64 26.8731 80.4383 27.9172 80.875 29.1252L125 150.456L144.125 97.8536C144.566 96.6502 145.366 95.6115 146.417 94.8781C147.468 94.1447 148.719 93.752 150 93.7534H193.75C195.408 93.7534 196.997 94.4119 198.169 95.584C199.342 96.7562 200 98.346 200 100.004C200 101.661 199.342 103.251 198.169 104.423C196.997 105.595 195.408 106.254 193.75 106.254H154.375L130.875 170.882C130.437 172.089 129.638 173.131 128.587 173.868C127.536 174.605 126.284 175 125 175C123.716 175 122.464 174.605 121.413 173.868C120.362 173.131 119.563 172.089 119.125 170.882L75 49.5512L55.875 102.141C55.4362 103.347 54.6371 104.388 53.586 105.124C52.535 105.86 51.283 106.254 50 106.254H6.25C4.5924 106.254 3.00269 105.595 1.83058 104.423C0.65848 103.251 0 101.661 0 100.004C0 98.346 0.65848 96.7562 1.83058 95.584C3.00269 94.4119 4.5924 93.7534 6.25 93.7534H45.625L69.125 29.1252C69.5617 27.9172 70.36 26.8731 71.4112 26.135C72.4624 25.3968 73.7155 25.0005 75 25Z" fill="#E6E6E6"/>
</g>
<defs>
<clipPath id="clip0_14_36">
<rect width="200" height="200" fill="white"/>
</clipPath>
</defs>
</svg>
