<svg width="200" height="200" viewBox="0 0 200 200" fill="none" xmlns="http://www.w3.org/2000/svg">
<g clip-path="url(#clip0_2_25)">
<g clip-path="url(#clip1_2_25)">
<path d="M100 187.5C123.206 187.5 145.462 178.281 161.872 161.872C178.281 145.462 187.5 123.206 187.5 100C187.5 76.7936 178.281 54.5376 161.872 38.1282C145.462 21.7187 123.206 12.5 100 12.5V187.5ZM100 200C73.4784 200 48.043 189.464 29.2893 170.711C10.5357 151.957 0 126.522 0 100C0 73.4784 10.5357 48.043 29.2893 29.2893C48.043 10.5357 73.4784 0 100 0C126.522 0 151.957 10.5357 170.711 29.2893C189.464 48.043 200 73.4784 200 100C200 126.522 189.464 151.957 170.711 170.711C151.957 189.464 126.522 200 100 200Z" fill="#E6E6E6"/>
</g>
</g>
<defs>
<clipPath id="clip0_2_25">
<rect width="200" height="200" fill="white"/>
</clipPath>
<clipPath id="clip1_2_25">
<rect width="200" height="200" fill="white"/>
</clipPath>
</defs>
</svg>
