<svg width="200" height="200" viewBox="0 0 200 200" fill="none" xmlns="http://www.w3.org/2000/svg">
<g clip-path="url(#clip0_20_17)">
<g clip-path="url(#clip1_20_17)">
<path d="M81.25 12.5C76.2772 12.5 71.5081 14.4754 67.9917 17.9917C64.4754 21.5081 62.5 26.2772 62.5 31.25V37.5H18.75C13.7772 37.5 9.00805 39.4754 5.49175 42.9917C1.97544 46.5081 0 51.2772 0 56.25L0 156.25C0 161.223 1.97544 165.992 5.49175 169.508C9.00805 173.025 13.7772 175 18.75 175H181.25C186.223 175 190.992 173.025 194.508 169.508C198.025 165.992 200 161.223 200 156.25V56.25C200 51.2772 198.025 46.5081 194.508 42.9917C190.992 39.4754 186.223 37.5 181.25 37.5H137.5V31.25C137.5 26.2772 135.525 21.5081 132.008 17.9917C128.492 14.4754 123.723 12.5 118.75 12.5H81.25ZM81.25 25H118.75C120.408 25 121.997 25.6585 123.169 26.8306C124.342 28.0027 125 29.5924 125 31.25V37.5H75V31.25C75 29.5924 75.6585 28.0027 76.8306 26.8306C78.0027 25.6585 79.5924 25 81.25 25ZM104.825 111.425L187.5 89.3875V156.25C187.5 157.908 186.842 159.497 185.669 160.669C184.497 161.842 182.908 162.5 181.25 162.5H18.75C17.0924 162.5 15.5027 161.842 14.3306 160.669C13.1585 159.497 12.5 157.908 12.5 156.25V89.375L95.175 111.425C98.3366 112.267 101.663 112.267 104.825 111.425ZM18.75 50H181.25C182.908 50 184.497 50.6585 185.669 51.8306C186.842 53.0027 187.5 54.5924 187.5 56.25V76.45L101.612 99.35C100.556 99.6321 99.444 99.6321 98.3875 99.35L12.5 76.45V56.25C12.5 54.5924 13.1585 53.0027 14.3306 51.8306C15.5027 50.6585 17.0924 50 18.75 50Z" fill="#525252"/>
</g>
</g>
<defs>
<clipPath id="clip0_20_17">
<rect width="200" height="200" fill="white"/>
</clipPath>
<clipPath id="clip1_20_17">
<rect width="200" height="200" fill="white"/>
</clipPath>
</defs>
</svg>
